<?xml version="1.0" encoding="UTF-8" standalone="no"?>
<!-- Created with Inkscape (http://www.inkscape.org/) -->

<svg
   xmlns:dc="http://purl.org/dc/elements/1.1/"
   xmlns:cc="http://creativecommons.org/ns#"
   xmlns:rdf="http://www.w3.org/1999/02/22-rdf-syntax-ns#"
   xmlns:svg="http://www.w3.org/2000/svg"
   xmlns="http://www.w3.org/2000/svg"
   xmlns:sodipodi="http://sodipodi.sourceforge.net/DTD/sodipodi-0.dtd"
   xmlns:inkscape="http://www.inkscape.org/namespaces/inkscape"
   width="48px"
   height="48px"
   id="svg3419"
   version="1.1"
   inkscape:version="0.48.1 r9760"
   sodipodi:docname="boulder.svg">
  <defs
     id="defs3421">
    <inkscape:perspective
       sodipodi:type="inkscape:persp3d"
       inkscape:vp_x="0 : 24 : 1"
       inkscape:vp_y="0 : 1000 : 0"
       inkscape:vp_z="48 : 24 : 1"
       inkscape:persp3d-origin="24 : 16 : 1"
       id="perspective4985" />
  </defs>
  <sodipodi:namedview
     id="base"
     pagecolor="#ffffff"
     bordercolor="#666666"
     borderopacity="1.0"
     inkscape:pageopacity="0.0"
     inkscape:pageshadow="2"
     inkscape:zoom="11.313708"
     inkscape:cx="17.961483"
     inkscape:cy="26.008756"
     inkscape:current-layer="layer1"
     showgrid="true"
     inkscape:grid-bbox="true"
     inkscape:document-units="px"
     showguides="true"
     inkscape:guide-bbox="true"
     inkscape:window-width="1429"
     inkscape:window-height="841"
     inkscape:window-x="0"
     inkscape:window-y="26"
     inkscape:window-maximized="1"
     inkscape:snap-global="true"
     objecttolerance="1"
     guidetolerance="5">
    <sodipodi:guide
       orientation="1,0"
       position="24,55"
       id="guide3438" />
    <sodipodi:guide
       orientation="0,1"
       position="16,24"
       id="guide3440" />
    <sodipodi:guide
       orientation="0,1"
       position="-0.8046875,36"
       id="guide4238" />
    <sodipodi:guide
       orientation="1,0"
       position="12,45.363281"
       id="guide4280" />
    <sodipodi:guide
       orientation="1,0"
       position="36,36.171875"
       id="guide4282" />
    <sodipodi:guide
       orientation="0,1"
       position="20.839844,12"
       id="guide4322" />
    <sodipodi:guide
       orientation="0,1"
       position="-8.25,14"
       id="guide4924" />
    <sodipodi:guide
       orientation="1,0"
       position="14,37.875"
       id="guide4926" />
    <sodipodi:guide
       orientation="0,1"
       position="35.125,34"
       id="guide4963" />
    <sodipodi:guide
       orientation="1,0"
       position="34,56.125"
       id="guide4965" />
    <sodipodi:guide
       orientation="0,1"
       position="-10.5,30"
       id="guide4967" />
    <sodipodi:guide
       orientation="1,0"
       position="19,52.5"
       id="guide4969" />
    <sodipodi:guide
       orientation="1,0"
       position="29,53.375"
       id="guide4971" />
    <sodipodi:guide
       orientation="0,1"
       position="-2.625,21"
       id="guide4973" />
    <sodipodi:guide
       orientation="0,1"
       position="-15.25,16"
       id="guide4983" />
    <sodipodi:guide
       orientation="0,1"
       position="-9.875,27"
       id="guide5003" />
    <sodipodi:guide
       orientation="0,1"
       position="10.1875,17.875"
       id="guide5009" />
    <sodipodi:guide
       orientation="0,1"
       position="-9.25,23"
       id="guide5011" />
    <sodipodi:guide
       orientation="1,0"
       position="20,42.875"
       id="guide5013" />
    <sodipodi:guide
       orientation="1,0"
       position="28,56.375"
       id="guide5015" />
    <sodipodi:guide
       orientation="1,0"
       position="30.652344,31.566406"
       id="guide5046" />
    <sodipodi:guide
       orientation="0,1"
       position="29.890625,31.519531"
       id="guide5050" />
    <sodipodi:guide
       orientation="1,0"
       position="31.637504,30.129378"
       id="guide5062" />
    <sodipodi:guide
       orientation="1,0"
       position="9.9989319,25.378504"
       id="guide5605" />
    <sodipodi:guide
       orientation="0,1"
       position="14.90625,10"
       id="guide5729" />
    <sodipodi:guide
       orientation="1,0"
       position="16.40625,14.71875"
       id="guide5731" />
  </sodipodi:namedview>
  <metadata
     id="metadata3424">
    <rdf:RDF>
      <cc:Work
         rdf:about="">
        <dc:format>image/svg+xml</dc:format>
        <dc:type
           rdf:resource="http://purl.org/dc/dcmitype/StillImage" />
        <dc:title></dc:title>
      </cc:Work>
    </rdf:RDF>
  </metadata>
  <g
     id="layer1"
     inkscape:label="Layer 1"
     inkscape:groupmode="layer">
    <path
       style="fill:#626262;fill-opacity:1;stroke:#e3f1f0;stroke-width:0;stroke-linecap:butt;stroke-linejoin:miter;stroke-miterlimit:4;stroke-opacity:1;stroke-dasharray:none"
       d="m 28,15.125 1,0 0,1.355469 1.652344,0 0,1.519531 0.98516,-0.0055 0,3.005524 L 34,21 l 0,3 2.00051,0 -5.1e-4,8 -2,0 0,2 0,2 -20,0 0,-2 -2,0 0,-2 -2.0010681,0 0,-7 L 12,25 l 0,-4 2,0 0,-3 2.625,0 0,-1.519531 2.375,0 0,-1.636719 1,0 L 20,14 l 8,0 z"
       id="path4236"
       inkscape:connector-curvature="0"
       sodipodi:nodetypes="cccccccccccccccccccccccccccccccc" />
    <path
       style="fill:#333333;fill-opacity:1;stroke:none"
       d="m 14,34 0,2 2.40625,0 0,2 2.59375,0 12.637504,0 0,-2 L 34,36 l 0,-2 0,-2 2,0.0459 L 36,27 34,27 34,30 31.637504,30 29,30 29.035572,32 19,32 l 0,2 z"
       id="path5595"
       inkscape:connector-curvature="0"
       sodipodi:nodetypes="cccccccccccccccccccc" />
    <path
       style="fill:#4d4d4d;fill-opacity:1;stroke:none"
       d="m 14,32 -2,0.0017 0,1.9983 7,0 0,-2 9.991378,0 L 29,30 31.637504,30 34,30 l 0,-3 2,0 0,-3 -2,0 0,-3 -2.362496,0 0,3 -0.98516,0 0,1 L 28,25 l 0,2 -4,0 0,3.125 -5,0 -5,0 z"
       id="path5599"
       inkscape:connector-curvature="0"
       sodipodi:nodetypes="ccccccccccccccccccccccccc" />
    <path
       style="fill:#999999;stroke:none"
       d="m 14,21 -2,0 0,3 -2.0010681,0 0.00107,3 -0.00107,3.125 2.0010681,0 2,0 0,-3.125 2.6875,0 3.3125,0 0,-2 4,0 0,-4 4,0 0,-3 2.652344,0 0,-1.519531 -1.652344,0 0,-1.405129 -1,0 L 28,14 l -8,0 0,0.8258 -1,0.0051 0,1.649537 -2.382991,0 L 16.626048,18 14,18 z"
       id="path5603"
       inkscape:connector-curvature="0"
       sodipodi:nodetypes="cccccccccccccccccccccccccccccc" />
  </g>
</svg>
