<?xml version="1.0" encoding="UTF-8" standalone="no"?>
<!-- Created with Inkscape (http://www.inkscape.org/) -->

<svg
   xmlns:dc="http://purl.org/dc/elements/1.1/"
   xmlns:cc="http://creativecommons.org/ns#"
   xmlns:rdf="http://www.w3.org/1999/02/22-rdf-syntax-ns#"
   xmlns:svg="http://www.w3.org/2000/svg"
   xmlns="http://www.w3.org/2000/svg"
   xmlns:sodipodi="http://sodipodi.sourceforge.net/DTD/sodipodi-0.dtd"
   xmlns:inkscape="http://www.inkscape.org/namespaces/inkscape"
   width="48px"
   height="48px"
   id="svg3209"
   version="1.1"
   inkscape:version="0.48.1 r9760"
   sodipodi:docname="end_top.svg">
  <defs
     id="defs3211" />
  <sodipodi:namedview
     id="base"
     pagecolor="#ffffff"
     bordercolor="#666666"
     borderopacity="1.0"
     inkscape:pageopacity="0.0"
     inkscape:pageshadow="2"
     inkscape:zoom="8"
     inkscape:cx="49.518616"
     inkscape:cy="31.853277"
     inkscape:current-layer="layer1"
     showgrid="false"
     inkscape:grid-bbox="true"
     inkscape:document-units="px"
     showguides="true"
     inkscape:guide-bbox="true"
     inkscape:window-width="1429"
     inkscape:window-height="841"
     inkscape:window-x="0"
     inkscape:window-y="26"
     inkscape:window-maximized="1"
     objecttolerance="3">
    <sodipodi:guide
       orientation="1,0"
       position="24,56.285714"
       id="guide3217" />
    <sodipodi:guide
       orientation="0,1"
       position="2,24"
       id="guide3219" />
    <sodipodi:guide
       orientation="1,0"
       position="3,55.5"
       id="guide3223" />
    <sodipodi:guide
       orientation="0,1"
       position="-52,45"
       id="guide3225" />
    <sodipodi:guide
       orientation="1,0"
       position="6,21"
       id="guide3229" />
    <sodipodi:guide
       orientation="1,0"
       position="9,55.375"
       id="guide3231" />
    <sodipodi:guide
       orientation="1,0"
       position="12.109204,15"
       id="guide3233" />
    <sodipodi:guide
       orientation="1,0"
       position="15,45"
       id="guide3235" />
    <sodipodi:guide
       orientation="1,0"
       position="18,55.375"
       id="guide3237" />
    <sodipodi:guide
       orientation="1,0"
       position="21,55"
       id="guide3239" />
    <sodipodi:guide
       orientation="0,1"
       position="-2.5,42"
       id="guide3243" />
    <sodipodi:guide
       orientation="0,1"
       position="-34.75,39"
       id="guide3245" />
    <sodipodi:guide
       orientation="0,1"
       position="-29.375,36"
       id="guide3247" />
    <sodipodi:guide
       orientation="0,1"
       position="-41.5,33"
       id="guide3249" />
    <sodipodi:guide
       orientation="0,1"
       position="-17.625,30"
       id="guide3251" />
    <sodipodi:guide
       orientation="0,1"
       position="-21.125,27"
       id="guide3253" />
    <sodipodi:guide
       orientation="0,1"
       position="-4,3"
       id="guide3255" />
    <sodipodi:guide
       orientation="0,1"
       position="-38.125,6"
       id="guide3257" />
    <sodipodi:guide
       orientation="0,1"
       position="-28.625,9"
       id="guide3259" />
    <sodipodi:guide
       orientation="0,1"
       position="-14.25,12"
       id="guide3261" />
    <sodipodi:guide
       orientation="0,1"
       position="-14.75,15"
       id="guide3263" />
    <sodipodi:guide
       orientation="0,1"
       position="-29.25,18"
       id="guide3265" />
    <sodipodi:guide
       orientation="0,1"
       position="-24.75,21"
       id="guide3267" />
    <sodipodi:guide
       orientation="1,0"
       position="27,24"
       id="guide3127" />
    <sodipodi:guide
       orientation="1,0"
       position="30,30"
       id="guide3129" />
    <sodipodi:guide
       orientation="0,1"
       position="-6.5,13.5625"
       id="guide3133" />
    <sodipodi:guide
       orientation="1,0"
       position="25.5,30"
       id="guide3137" />
    <sodipodi:guide
       orientation="1,0"
       position="43,45"
       id="guide5770" />
    <sodipodi:guide
       orientation="1,0"
       position="40,94.234375"
       id="guide5900" />
    <sodipodi:guide
       orientation="1,0"
       position="37,96.359375"
       id="guide5902" />
    <sodipodi:guide
       orientation="1,0"
       position="34,127.04688"
       id="guide5904" />
    <sodipodi:guide
       orientation="1,0"
       position="32,132.1875"
       id="guide5906" />
    <inkscape:grid
       type="xygrid"
       id="grid5912"
       empspacing="5"
       visible="true"
       enabled="true"
       snapvisiblegridlinesonly="true" />
    <sodipodi:guide
       orientation="1,0"
       position="46.006135,52.281708"
       id="guide5935" />
  </sodipodi:namedview>
  <metadata
     id="metadata3214">
    <rdf:RDF>
      <cc:Work
         rdf:about="">
        <dc:format>image/svg+xml</dc:format>
        <dc:type
           rdf:resource="http://purl.org/dc/dcmitype/StillImage" />
        <dc:title></dc:title>
      </cc:Work>
    </rdf:RDF>
  </metadata>
  <g
     id="layer1"
     inkscape:label="Layer 1"
     inkscape:groupmode="layer">
    <path
       style="color:#000000;fill:#4d4d4d;fill-opacity:1;fill-rule:nonzero;stroke:#000000;stroke-width:0.50000000000000000;stroke-linecap:butt;stroke-linejoin:miter;stroke-miterlimit:4;stroke-dashoffset:0;stroke-opacity:1;marker:none;visibility:visible;display:inline;overflow:visible;enable-background:accumulate"
       d="m 4,4.5 40,0 0,39 -40,0 z"
       id="rect5933" />
    <path
       style="color:#000000;fill:#808080;fill-opacity:1;fill-rule:nonzero;stroke:#000000;stroke-width:0.50000000000000000;stroke-miterlimit:4;stroke-opacity:1;marker:none;visibility:visible;display:inline;overflow:visible;enable-background:accumulate"
       d="M 5.5,6 8.6039998,6 11.5,6 l 0,3 3,0 0,3 3.031223,0 -0.03122,3 16,0 3,-3 0,-3 0,-3 3,0 3,0 0,6 -3,0 0,0 -6,0 0,24 6,0 3,0 0,6 -6,0 0,-3 -3,-3 -4,0 0,-3 -12,0 0,3 -6,0 0,3 0.06501,3 -6.06501,0 0,-6 3,0 0,0 3,0 3,0 0,-24 -2.890796,0 L 11.5,9 l -3,3 -3,0 z"
       id="rect5768"
       inkscape:connector-curvature="0"
       sodipodi:nodetypes="cccccccccccccccccccccccccccccccccccccccccccc" />
    <path
       style="color:#000000;fill:#999999;fill-opacity:1;fill-rule:nonzero;stroke:#000000;stroke-width:0.50000000000000000;stroke-miterlimit:4;stroke-opacity:1;marker:none;visibility:visible;display:inline;overflow:visible;enable-background:accumulate"
       d="m 8.5,9 5.981825,0 0.01817,3 2.987029,0 0.01297,3 16,0 0,-3 0,-3 3,0 3,0 0,6 -6,0 0,18 6,0 0,6 -6.01468,0 0.01468,-3 -2,0 0,-3 -14,0 -0.05717,3 -2.942835,0 0,3 -6,0 0,-6 6,0 0,-21 0,3 -6,0 z"
       id="rect5908"
       inkscape:connector-curvature="0"
       sodipodi:nodetypes="cccccccccccccccccccccccccccccc" />
    <path
       style="color:#000000;fill:#b3b3b3;fill-opacity:1;fill-rule:nonzero;stroke:#000000;stroke-width:0.50000000000000000;stroke-miterlimit:4;stroke-opacity:1;marker:none;visibility:visible;display:inline;overflow:visible;enable-background:accumulate"
       d="m 11.609204,12 5.877825,0 0.01297,3 12.000001,0 0,-3 4,0 2.999999,0 0,6 -3,0 10e-7,12 3,0 -10e-7,6 -6.999999,0 0,-3 -12,0 0,3 -5.890796,0 0,-6 2.890796,0 -10e-7,-12 -2.890796,0 z"
       id="rect5910"
       inkscape:connector-curvature="0"
       sodipodi:nodetypes="cccccccccccccccccccccc" />
    <path
       sodipodi:type="arc"
       style="color:#000000;fill:#dbebeb;fill-opacity:1;fill-rule:nonzero;stroke:none;stroke-width:1;marker:none;visibility:visible;display:inline;overflow:visible;enable-background:accumulate"
       id="path3125"
       sodipodi:cx="24"
       sodipodi:cy="24"
       sodipodi:rx="12"
       sodipodi:ry="12"
       d="m 36,24 a 12,12 0 1 1 -0.0011,-0.164635"
       sodipodi:start="0"
       sodipodi:end="6.2694653"
       sodipodi:open="true" />
  </g>
</svg>
